<svg width="114" height="44" viewBox="0 0 114 44" fill="none" xmlns="http://www.w3.org/2000/svg">
<rect width="114" height="44" rx="22" fill="#2F78FF"/>
<path d="M25.4775 28V15.8311H29.9351C31.1082 15.8311 32.0324 16.1105 32.7075 16.6694C33.3826 17.2284 33.7202 17.9976 33.7202 18.9771C33.7202 20.4159 33.0921 21.3787 31.8359 21.8657C33.2526 22.325 33.9609 23.3045 33.9609 24.8042C33.9609 25.7837 33.6206 26.5612 32.9399 27.1367C32.2593 27.7122 31.3407 28 30.1841 28H25.4775ZM29.9185 16.9185H26.7061V21.3677H30.0679C30.8315 21.3677 31.4209 21.1685 31.8359 20.77C32.2565 20.366 32.4668 19.8016 32.4668 19.0767C32.4668 18.3905 32.2454 17.8592 31.8027 17.4829C31.36 17.1066 30.7319 16.9185 29.9185 16.9185ZM30.1841 22.4385H26.7061V26.896H30.1841C30.9865 26.896 31.609 26.6995 32.0518 26.3066C32.5 25.9137 32.7241 25.3631 32.7241 24.6548C32.7241 23.9686 32.4972 23.429 32.0435 23.0361C31.5952 22.6377 30.9754 22.4385 30.1841 22.4385ZM41.6973 19.7739H42.8677V28H41.8467L41.6973 26.6055C41.4704 27.0869 41.0913 27.4743 40.5601 27.7676C40.0343 28.0609 39.4505 28.2075 38.8086 28.2075C37.8568 28.2075 37.118 27.9087 36.5923 27.311C36.0721 26.7078 35.812 25.8944 35.812 24.8706V19.7573H37.0073V24.4971C37.0073 26.2679 37.7323 27.1533 39.1821 27.1533C39.979 27.1533 40.596 26.8932 41.0332 26.373C41.4759 25.8529 41.6973 25.1086 41.6973 24.1401V19.7739ZM44.4448 25.6841H45.5737C45.5737 26.16 45.7397 26.5391 46.0718 26.8213C46.4093 27.098 46.8659 27.2363 47.4414 27.2363C48.0778 27.2363 48.5731 27.109 48.9272 26.8545C49.2869 26.5999 49.4668 26.2513 49.4668 25.8086C49.4668 25.46 49.3672 25.1833 49.168 24.9785C48.9688 24.7738 48.6312 24.6133 48.1553 24.4971L46.7441 24.1401C45.3275 23.786 44.6191 23.0444 44.6191 21.9155C44.6191 21.1961 44.8903 20.6234 45.4326 20.1973C45.9805 19.7656 46.6999 19.5498 47.5908 19.5498C48.4596 19.5498 49.1569 19.7739 49.6826 20.2222C50.2083 20.6649 50.4823 21.2681 50.5044 22.0317H49.3589C49.3423 21.5558 49.1763 21.1851 48.8608 20.9194C48.5454 20.6538 48.111 20.521 47.5576 20.521C46.9821 20.521 46.5366 20.64 46.2212 20.8779C45.9113 21.1159 45.7563 21.4562 45.7563 21.8989C45.7563 22.5353 46.2046 22.9642 47.1011 23.1855L48.5122 23.5425C49.2316 23.7196 49.7573 23.9852 50.0894 24.3394C50.4214 24.6935 50.5874 25.1667 50.5874 25.7588C50.5874 26.4948 50.2996 27.0869 49.7241 27.5352C49.1486 27.9834 48.3932 28.2075 47.458 28.2075C46.5339 28.2075 45.8006 27.9779 45.2583 27.5186C44.716 27.0592 44.4448 26.4478 44.4448 25.6841ZM53.7168 17.2505C53.5397 17.422 53.3322 17.5078 53.0942 17.5078C52.8563 17.5078 52.6515 17.4248 52.48 17.2588C52.314 17.0872 52.231 16.8825 52.231 16.6445C52.231 16.4066 52.3167 16.1991 52.4883 16.022C52.6598 15.8449 52.8618 15.7563 53.0942 15.7563C53.3322 15.7563 53.5397 15.8449 53.7168 16.022C53.8939 16.1991 53.9824 16.4066 53.9824 16.6445C53.9824 16.877 53.8939 17.0789 53.7168 17.2505ZM52.5132 28V19.7739H53.6919V28H52.5132ZM57.311 28H56.1323V19.7739H57.1533L57.3276 21.2017C57.5988 20.6815 57.9862 20.2775 58.4897 19.9897C58.9933 19.6965 59.5467 19.5498 60.1499 19.5498C61.2401 19.5498 62.0452 19.8514 62.5654 20.4546C63.0856 21.0522 63.3457 21.8906 63.3457 22.9697V28H62.167V23.2271C62.167 22.3084 61.9761 21.6444 61.5942 21.2349C61.2124 20.8254 60.6618 20.6206 59.9424 20.6206C59.1123 20.6206 58.4648 20.9001 58 21.459C57.5407 22.0124 57.311 22.7594 57.311 23.7002V28ZM69.1313 28.2075C67.925 28.2075 66.951 27.8118 66.2095 27.0205C65.4735 26.2236 65.1055 25.1777 65.1055 23.8828C65.1055 22.599 65.4679 21.5558 66.1929 20.7534C66.9233 19.951 67.8752 19.5498 69.0483 19.5498C70.1606 19.5498 71.0627 19.9095 71.7544 20.6289C72.4461 21.3483 72.792 22.2918 72.792 23.4595V24.0405H66.2427C66.2869 25.0477 66.5609 25.828 67.0645 26.3813C67.568 26.9292 68.2625 27.2031 69.1479 27.2031C70.5093 27.2031 71.3477 26.647 71.6631 25.5347H72.792C72.5706 26.4035 72.1473 27.0675 71.522 27.5269C70.8966 27.9806 70.0998 28.2075 69.1313 28.2075ZM69.0483 20.5542C68.2847 20.5542 67.6566 20.7894 67.1641 21.2598C66.6771 21.7301 66.381 22.3721 66.2759 23.1855H71.6133C71.6133 22.3942 71.3781 21.7578 70.9077 21.2764C70.4373 20.7949 69.8175 20.5542 69.0483 20.5542ZM73.9624 25.6841H75.0913C75.0913 26.16 75.2573 26.5391 75.5894 26.8213C75.9269 27.098 76.3835 27.2363 76.959 27.2363C77.5954 27.2363 78.0907 27.109 78.4448 26.8545C78.8045 26.5999 78.9844 26.2513 78.9844 25.8086C78.9844 25.46 78.8848 25.1833 78.6855 24.9785C78.4863 24.7738 78.1488 24.6133 77.6729 24.4971L76.2617 24.1401C74.8451 23.786 74.1367 23.0444 74.1367 21.9155C74.1367 21.1961 74.4079 20.6234 74.9502 20.1973C75.498 19.7656 76.2174 19.5498 77.1084 19.5498C77.9772 19.5498 78.6745 19.7739 79.2002 20.2222C79.7259 20.6649 79.9998 21.2681 80.022 22.0317H78.8765C78.8599 21.5558 78.6938 21.1851 78.3784 20.9194C78.063 20.6538 77.6286 20.521 77.0752 20.521C76.4997 20.521 76.0542 20.64 75.7388 20.8779C75.4289 21.1159 75.2739 21.4562 75.2739 21.8989C75.2739 22.5353 75.7222 22.9642 76.6187 23.1855L78.0298 23.5425C78.7492 23.7196 79.2749 23.9852 79.6069 24.3394C79.939 24.6935 80.105 25.1667 80.105 25.7588C80.105 26.4948 79.8172 27.0869 79.2417 27.5352C78.6662 27.9834 77.9108 28.2075 76.9756 28.2075C76.0514 28.2075 75.3182 27.9779 74.7759 27.5186C74.2336 27.0592 73.9624 26.4478 73.9624 25.6841ZM81.3335 25.6841H82.4624C82.4624 26.16 82.6284 26.5391 82.9604 26.8213C83.298 27.098 83.7546 27.2363 84.3301 27.2363C84.9665 27.2363 85.4618 27.109 85.8159 26.8545C86.1756 26.5999 86.3555 26.2513 86.3555 25.8086C86.3555 25.46 86.2559 25.1833 86.0566 24.9785C85.8574 24.7738 85.5199 24.6133 85.0439 24.4971L83.6328 24.1401C82.2161 23.786 81.5078 23.0444 81.5078 21.9155C81.5078 21.1961 81.779 20.6234 82.3213 20.1973C82.8691 19.7656 83.5885 19.5498 84.4795 19.5498C85.3483 19.5498 86.0456 19.7739 86.5713 20.2222C87.097 20.6649 87.3709 21.2681 87.3931 22.0317H86.2476C86.231 21.5558 86.0649 21.1851 85.7495 20.9194C85.4341 20.6538 84.9997 20.521 84.4463 20.521C83.8708 20.521 83.4253 20.64 83.1099 20.8779C82.8 21.1159 82.645 21.4562 82.645 21.8989C82.645 22.5353 83.0933 22.9642 83.9897 23.1855L85.4009 23.5425C86.1203 23.7196 86.646 23.9852 86.978 24.3394C87.3101 24.6935 87.4761 25.1667 87.4761 25.7588C87.4761 26.4948 87.1883 27.0869 86.6128 27.5352C86.0373 27.9834 85.2819 28.2075 84.3467 28.2075C83.4225 28.2075 82.6893 27.9779 82.147 27.5186C81.6047 27.0592 81.3335 26.4478 81.3335 25.6841Z" fill="white"/>
</svg>
