<svg width="114" height="44" viewBox="0 0 114 44" fill="none" xmlns="http://www.w3.org/2000/svg">
<rect width="114" height="44" rx="22" fill="#C1C1C1"/>
<path d="M12.7739 28H5.47754V15.8311H12.7573V16.9517H6.70605V21.3345H12.1929V22.4385H6.70605V26.8794H12.7739V28ZM16.1772 28H14.9985V19.7739H16.0195L16.1938 21.2017C16.465 20.6815 16.8524 20.2775 17.356 19.9897C17.8595 19.6965 18.4129 19.5498 19.0161 19.5498C20.1063 19.5498 20.9115 19.8514 21.4316 20.4546C21.9518 21.0522 22.2119 21.8906 22.2119 22.9697V28H21.0332V23.2271C21.0332 22.3084 20.8423 21.6444 20.4604 21.2349C20.0786 20.8254 19.528 20.6206 18.8086 20.6206C17.9785 20.6206 17.3311 20.9001 16.8662 21.459C16.4069 22.0124 16.1772 22.7594 16.1772 23.7002V28ZM26.437 28H25.2832V20.7617H23.6313V19.7739H25.2832V17.1675H26.437V19.7739H28.0806V20.7617H26.437V28ZM32.978 28.2075C31.7716 28.2075 30.7977 27.8118 30.0562 27.0205C29.3201 26.2236 28.9521 25.1777 28.9521 23.8828C28.9521 22.599 29.3146 21.5558 30.0396 20.7534C30.77 19.951 31.7218 19.5498 32.895 19.5498C34.0073 19.5498 34.9093 19.9095 35.6011 20.6289C36.2928 21.3483 36.6387 22.2918 36.6387 23.4595V24.0405H30.0894C30.1336 25.0477 30.4076 25.828 30.9111 26.3813C31.4147 26.9292 32.1092 27.2031 32.9946 27.2031C34.356 27.2031 35.1943 26.647 35.5098 25.5347H36.6387C36.4173 26.4035 35.994 27.0675 35.3687 27.5269C34.7433 27.9806 33.9465 28.2075 32.978 28.2075ZM32.895 20.5542C32.1313 20.5542 31.5033 20.7894 31.0107 21.2598C30.5238 21.7301 30.2277 22.3721 30.1226 23.1855H35.46C35.46 22.3942 35.2248 21.7578 34.7544 21.2764C34.284 20.7949 33.6642 20.5542 32.895 20.5542ZM42.8145 19.666V20.7202H42.167C41.4144 20.7202 40.8112 20.9582 40.3574 21.4341C39.9092 21.9045 39.6851 22.5298 39.6851 23.3101V28H38.5063V19.7739H39.6187L39.7017 21.0439C39.8677 20.5957 40.1554 20.2415 40.5649 19.9814C40.98 19.7158 41.4725 19.583 42.0425 19.583C42.3136 19.583 42.571 19.6107 42.8145 19.666ZM46.6079 28H45.4541V20.7617H43.8022V19.7739H45.4541V17.1675H46.6079V19.7739H48.2515V20.7617H46.6079V28ZM52.0117 28.2075C51.1484 28.2075 50.4678 27.9862 49.9697 27.5435C49.4717 27.0952 49.2227 26.5059 49.2227 25.7754C49.2227 25.0228 49.4938 24.4168 50.0361 23.9575C50.584 23.4982 51.3394 23.2298 52.3022 23.1523L55.0249 22.9365V22.6626C55.0249 21.2459 54.2972 20.5376 52.8418 20.5376C52.1279 20.5376 51.569 20.6925 51.165 21.0024C50.7666 21.3068 50.5674 21.7357 50.5674 22.2891H49.4966C49.4966 21.459 49.8065 20.7949 50.4263 20.2969C51.0461 19.7988 51.8651 19.5498 52.8833 19.5498C53.8849 19.5498 54.6846 19.8099 55.2822 20.3301C55.8799 20.8503 56.1787 21.6333 56.1787 22.6792V28H55.1909L55.0415 26.5557C54.7869 27.0758 54.3913 27.4826 53.8545 27.7759C53.3232 28.0636 52.709 28.2075 52.0117 28.2075ZM52.2856 27.2529C53.1434 27.2529 53.813 26.9818 54.2944 26.4395C54.7814 25.8916 55.0249 25.1639 55.0249 24.2563V23.8164L52.5928 24.0073C51.8512 24.0737 51.3034 24.2591 50.9492 24.5635C50.5951 24.8678 50.418 25.2607 50.418 25.7422C50.418 26.2347 50.584 26.611 50.916 26.8711C51.2536 27.1257 51.7101 27.2529 52.2856 27.2529ZM59.7314 17.2505C59.5544 17.422 59.3468 17.5078 59.1089 17.5078C58.8709 17.5078 58.6662 17.4248 58.4946 17.2588C58.3286 17.0872 58.2456 16.8825 58.2456 16.6445C58.2456 16.4066 58.3314 16.1991 58.5029 16.022C58.6745 15.8449 58.8765 15.7563 59.1089 15.7563C59.3468 15.7563 59.5544 15.8449 59.7314 16.022C59.9085 16.1991 59.9971 16.4066 59.9971 16.6445C59.9971 16.877 59.9085 17.0789 59.7314 17.2505ZM58.5278 28V19.7739H59.7065V28H58.5278ZM63.3257 28H62.147V19.7739H63.168L63.3423 21.2017C63.6134 20.6815 64.0008 20.2775 64.5044 19.9897C65.008 19.6965 65.5614 19.5498 66.1646 19.5498C67.2547 19.5498 68.0599 19.8514 68.5801 20.4546C69.1003 21.0522 69.3604 21.8906 69.3604 22.9697V28H68.1816V23.2271C68.1816 22.3084 67.9907 21.6444 67.6089 21.2349C67.2271 20.8254 66.6764 20.6206 65.957 20.6206C65.127 20.6206 64.4795 20.9001 64.0146 21.459C63.5553 22.0124 63.3257 22.7594 63.3257 23.7002V28ZM72.8716 28H71.6929V19.7739H72.7139L72.855 20.9443C73.0597 20.5127 73.3807 20.1724 73.8179 19.9233C74.255 19.6743 74.7614 19.5498 75.3369 19.5498C75.9788 19.5498 76.5295 19.7075 76.9888 20.0229C77.4536 20.3328 77.7856 20.759 77.9849 21.3013C78.173 20.759 78.505 20.3328 78.981 20.0229C79.4624 19.7075 80.0324 19.5498 80.6909 19.5498C81.5874 19.5498 82.304 19.8237 82.8408 20.3716C83.3776 20.9194 83.646 21.6665 83.646 22.6128V28H82.5088V22.8452C82.5088 22.1424 82.3262 21.5946 81.9609 21.2017C81.6012 20.8032 81.1032 20.604 80.4668 20.604C79.7972 20.604 79.2632 20.8254 78.8647 21.2681C78.4718 21.7108 78.2754 22.2614 78.2754 22.9199V28H77.1216V22.8286C77.1216 22.1369 76.9362 21.5973 76.5654 21.21C76.2002 20.8171 75.7049 20.6206 75.0796 20.6206C74.41 20.6206 73.8732 20.8392 73.4692 21.2764C73.0708 21.708 72.8716 22.2503 72.8716 22.9033V28ZM89.4565 28.2075C88.2502 28.2075 87.2762 27.8118 86.5347 27.0205C85.7987 26.2236 85.4307 25.1777 85.4307 23.8828C85.4307 22.599 85.7931 21.5558 86.5181 20.7534C87.2485 19.951 88.2004 19.5498 89.3735 19.5498C90.4858 19.5498 91.3879 19.9095 92.0796 20.6289C92.7713 21.3483 93.1172 22.2918 93.1172 23.4595V24.0405H86.5679C86.6121 25.0477 86.8861 25.828 87.3896 26.3813C87.8932 26.9292 88.5877 27.2031 89.4731 27.2031C90.8345 27.2031 91.6729 26.647 91.9883 25.5347H93.1172C92.8958 26.4035 92.4725 27.0675 91.8472 27.5269C91.2218 27.9806 90.425 28.2075 89.4565 28.2075ZM89.3735 20.5542C88.6099 20.5542 87.9818 20.7894 87.4893 21.2598C87.0023 21.7301 86.7062 22.3721 86.6011 23.1855H91.9385C91.9385 22.3942 91.7033 21.7578 91.2329 21.2764C90.7625 20.7949 90.1427 20.5542 89.3735 20.5542ZM96.1636 28H94.9849V19.7739H96.0059L96.1802 21.2017C96.4513 20.6815 96.8387 20.2775 97.3423 19.9897C97.8459 19.6965 98.3993 19.5498 99.0024 19.5498C100.093 19.5498 100.898 19.8514 101.418 20.4546C101.938 21.0522 102.198 21.8906 102.198 22.9697V28H101.02V23.2271C101.02 22.3084 100.829 21.6444 100.447 21.2349C100.065 20.8254 99.5143 20.6206 98.7949 20.6206C97.9648 20.6206 97.3174 20.9001 96.8525 21.459C96.3932 22.0124 96.1636 22.7594 96.1636 23.7002V28ZM106.423 28H105.27V20.7617H103.618V19.7739H105.27V17.1675H106.423V19.7739H108.067V20.7617H106.423V28Z" fill="white"/>
</svg>
