<svg width="114" height="44" viewBox="0 0 114 44" fill="none" xmlns="http://www.w3.org/2000/svg">
<rect width="114" height="44" rx="22" fill="#2F78FF"/>
<path d="M33.5825 16.7773C32.188 16.7773 31.0757 17.2505 30.2456 18.1968C29.4211 19.1431 29.0088 20.3993 29.0088 21.9653C29.0088 23.5314 29.4294 24.771 30.2705 25.6841C31.1172 26.5916 32.2323 27.0454 33.6157 27.0454C34.0418 27.0454 34.443 27.0039 34.8193 26.9209C35.2012 26.8379 35.5664 26.6995 35.915 26.5059C36.2637 26.3122 36.5625 26.0687 36.8115 25.7754C37.0661 25.4821 37.2681 25.1113 37.4175 24.6631C37.5669 24.2093 37.6416 23.7002 37.6416 23.1357V22.5049H33.2422V21.4175H38.7954V28.0166H37.8325L37.708 26.0825C37.3704 26.7078 36.8337 27.2197 36.0977 27.6182C35.3672 28.0111 34.5233 28.2075 33.5659 28.2075C31.8338 28.2075 30.4282 27.6348 29.3491 26.4893C28.27 25.3438 27.7305 23.8358 27.7305 21.9653C27.7305 20.7368 27.974 19.6411 28.4609 18.6782C28.9535 17.7153 29.6452 16.9655 30.5361 16.4287C31.4326 15.8919 32.4536 15.6235 33.5991 15.6235C34.883 15.6235 35.9814 15.9583 36.8945 16.6279C37.8132 17.2975 38.3914 18.1857 38.6294 19.2925H37.3013C37.0522 18.4735 36.5985 17.8509 35.9399 17.4248C35.2814 16.9932 34.4956 16.7773 33.5825 16.7773ZM44.4233 28.2075C43.217 28.2075 42.243 27.8118 41.5015 27.0205C40.7655 26.2236 40.3975 25.1777 40.3975 23.8828C40.3975 22.599 40.7599 21.5558 41.4849 20.7534C42.2153 19.951 43.1672 19.5498 44.3403 19.5498C45.4526 19.5498 46.3547 19.9095 47.0464 20.6289C47.7381 21.3483 48.084 22.2918 48.084 23.4595V24.0405H41.5347C41.5789 25.0477 41.8529 25.828 42.3564 26.3813C42.86 26.9292 43.5545 27.2031 44.4399 27.2031C45.8013 27.2031 46.6396 26.647 46.9551 25.5347H48.084C47.8626 26.4035 47.4393 27.0675 46.814 27.5269C46.1886 27.9806 45.3918 28.2075 44.4233 28.2075ZM44.3403 20.5542C43.5767 20.5542 42.9486 20.7894 42.4561 21.2598C41.9691 21.7301 41.673 22.3721 41.5679 23.1855H46.9053C46.9053 22.3942 46.6701 21.7578 46.1997 21.2764C45.7293 20.7949 45.1095 20.5542 44.3403 20.5542ZM51.1304 28H49.9517V19.7739H50.9727L51.147 21.2017C51.4181 20.6815 51.8055 20.2775 52.3091 19.9897C52.8127 19.6965 53.366 19.5498 53.9692 19.5498C55.0594 19.5498 55.8646 19.8514 56.3848 20.4546C56.9049 21.0522 57.165 21.8906 57.165 22.9697V28H55.9863V23.2271C55.9863 22.3084 55.7954 21.6444 55.4136 21.2349C55.0317 20.8254 54.4811 20.6206 53.7617 20.6206C52.9316 20.6206 52.2842 20.9001 51.8193 21.459C51.36 22.0124 51.1304 22.7594 51.1304 23.7002V28ZM62.9507 28.2075C61.7443 28.2075 60.7703 27.8118 60.0288 27.0205C59.2928 26.2236 58.9248 25.1777 58.9248 23.8828C58.9248 22.599 59.2873 21.5558 60.0122 20.7534C60.7427 19.951 61.6945 19.5498 62.8677 19.5498C63.98 19.5498 64.882 19.9095 65.5737 20.6289C66.2655 21.3483 66.6113 22.2918 66.6113 23.4595V24.0405H60.062C60.1063 25.0477 60.3802 25.828 60.8838 26.3813C61.3874 26.9292 62.0819 27.2031 62.9673 27.2031C64.3286 27.2031 65.167 26.647 65.4824 25.5347H66.6113C66.39 26.4035 65.9666 27.0675 65.3413 27.5269C64.716 27.9806 63.9191 28.2075 62.9507 28.2075ZM62.8677 20.5542C62.104 20.5542 61.4759 20.7894 60.9834 21.2598C60.4964 21.7301 60.2004 22.3721 60.0952 23.1855H65.4326C65.4326 22.3942 65.1974 21.7578 64.7271 21.2764C64.2567 20.7949 63.6369 20.5542 62.8677 20.5542ZM72.7871 19.666V20.7202H72.1396C71.387 20.7202 70.7839 20.9582 70.3301 21.4341C69.8818 21.9045 69.6577 22.5298 69.6577 23.3101V28H68.479V19.7739H69.5913L69.6743 21.0439C69.8403 20.5957 70.1281 20.2415 70.5376 19.9814C70.9526 19.7158 71.4451 19.583 72.0151 19.583C72.2863 19.583 72.5436 19.6107 72.7871 19.666ZM76.3564 28.2075C75.4932 28.2075 74.8125 27.9862 74.3145 27.5435C73.8164 27.0952 73.5674 26.5059 73.5674 25.7754C73.5674 25.0228 73.8385 24.4168 74.3809 23.9575C74.9287 23.4982 75.6841 23.2298 76.647 23.1523L79.3696 22.9365V22.6626C79.3696 21.2459 78.6419 20.5376 77.1865 20.5376C76.4727 20.5376 75.9137 20.6925 75.5098 21.0024C75.1113 21.3068 74.9121 21.7357 74.9121 22.2891H73.8413C73.8413 21.459 74.1512 20.7949 74.771 20.2969C75.3908 19.7988 76.2098 19.5498 77.228 19.5498C78.2297 19.5498 79.0293 19.8099 79.627 20.3301C80.2246 20.8503 80.5234 21.6333 80.5234 22.6792V28H79.5356L79.3862 26.5557C79.1317 27.0758 78.736 27.4826 78.1992 27.7759C77.668 28.0636 77.0537 28.2075 76.3564 28.2075ZM76.6304 27.2529C77.4881 27.2529 78.1577 26.9818 78.6392 26.4395C79.1261 25.8916 79.3696 25.1639 79.3696 24.2563V23.8164L76.9375 24.0073C76.196 24.0737 75.6481 24.2591 75.2939 24.5635C74.9398 24.8678 74.7627 25.2607 74.7627 25.7422C74.7627 26.2347 74.9287 26.611 75.2607 26.8711C75.5983 27.1257 76.0549 27.2529 76.6304 27.2529ZM84.1011 28H82.9307V15.6069H84.1011V28Z" fill="white"/>
</svg>
