<svg width="114" height="44" viewBox="0 0 114 44" fill="none" xmlns="http://www.w3.org/2000/svg">
<rect width="114" height="44" rx="22" fill="#C1C1C1"/>
<path d="M34.7061 28H33.4775V15.8311H34.7061V21.2515H41.2803V15.8311H42.4922V28H41.2803V22.3887H34.7061V28ZM48.6597 28.2075C47.4533 28.2075 46.4793 27.8118 45.7378 27.0205C45.0018 26.2236 44.6338 25.1777 44.6338 23.8828C44.6338 22.599 44.9963 21.5558 45.7212 20.7534C46.4517 19.951 47.4035 19.5498 48.5767 19.5498C49.689 19.5498 50.591 19.9095 51.2827 20.6289C51.9744 21.3483 52.3203 22.2918 52.3203 23.4595V24.0405H45.771C45.8153 25.0477 46.0892 25.828 46.5928 26.3813C47.0964 26.9292 47.7909 27.2031 48.6763 27.2031C50.0376 27.2031 50.876 26.647 51.1914 25.5347H52.3203C52.099 26.4035 51.6756 27.0675 51.0503 27.5269C50.425 27.9806 49.6281 28.2075 48.6597 28.2075ZM48.5767 20.5542C47.813 20.5542 47.1849 20.7894 46.6924 21.2598C46.2054 21.7301 45.9093 22.3721 45.8042 23.1855H51.1416C51.1416 22.3942 50.9064 21.7578 50.436 21.2764C49.9657 20.7949 49.3459 20.5542 48.5767 20.5542ZM56.4707 28.2075C55.6074 28.2075 54.9268 27.9862 54.4287 27.5435C53.9307 27.0952 53.6816 26.5059 53.6816 25.7754C53.6816 25.0228 53.9528 24.4168 54.4951 23.9575C55.043 23.4982 55.7983 23.2298 56.7612 23.1523L59.4839 22.9365V22.6626C59.4839 21.2459 58.7562 20.5376 57.3008 20.5376C56.5869 20.5376 56.028 20.6925 55.624 21.0024C55.2256 21.3068 55.0264 21.7357 55.0264 22.2891H53.9556C53.9556 21.459 54.2655 20.7949 54.8853 20.2969C55.505 19.7988 56.3241 19.5498 57.3423 19.5498C58.3439 19.5498 59.1436 19.8099 59.7412 20.3301C60.3389 20.8503 60.6377 21.6333 60.6377 22.6792V28H59.6499L59.5005 26.5557C59.2459 27.0758 58.8503 27.4826 58.3135 27.7759C57.7822 28.0636 57.168 28.2075 56.4707 28.2075ZM56.7446 27.2529C57.6024 27.2529 58.272 26.9818 58.7534 26.4395C59.2404 25.8916 59.4839 25.1639 59.4839 24.2563V23.8164L57.0518 24.0073C56.3102 24.0737 55.7624 24.2591 55.4082 24.5635C55.054 24.8678 54.877 25.2607 54.877 25.7422C54.877 26.2347 55.043 26.611 55.375 26.8711C55.7126 27.1257 56.1691 27.2529 56.7446 27.2529ZM64.2153 28H63.0449V15.6069H64.2153V28ZM68.5981 28H67.4443V20.7617H65.7925V19.7739H67.4443V17.1675H68.5981V19.7739H70.2417V20.7617H68.5981V28ZM72.9478 27.9834H71.769V15.6069H72.9478V21.2017C73.2189 20.6925 73.6035 20.2913 74.1016 19.998C74.5996 19.6992 75.1834 19.5498 75.853 19.5498C76.8989 19.5498 77.682 19.8514 78.2021 20.4546C78.7223 21.0578 78.9824 21.8962 78.9824 22.9697V28H77.8037V23.2271C77.8037 21.4894 77.0788 20.6206 75.6289 20.6206C74.7822 20.6206 74.1237 20.8945 73.6533 21.4424C73.1829 21.9902 72.9478 22.6792 72.9478 23.5093V27.9834Z" fill="white"/>
</svg>
