<svg width="114" height="44" viewBox="0 0 114 44" fill="none" xmlns="http://www.w3.org/2000/svg">
<rect width="114" height="44" rx="22" fill="#C1C1C1"/>
<path d="M27.7471 18.9937C27.7471 17.9754 28.1206 17.1564 28.8677 16.5366C29.6147 15.9168 30.6025 15.6069 31.8311 15.6069C32.9268 15.6069 33.8122 15.8975 34.4873 16.4785C35.168 17.054 35.5553 17.8509 35.6494 18.8691H34.4126C34.3462 18.1774 34.0861 17.6462 33.6323 17.2754C33.1841 16.8991 32.5781 16.7109 31.8145 16.7109C30.9567 16.7109 30.2677 16.9185 29.7476 17.3335C29.2329 17.743 28.9756 18.2909 28.9756 18.9771C28.9756 20.034 29.6092 20.723 30.8765 21.0439L32.9683 21.5586C34.894 22.0234 35.8569 23.0887 35.8569 24.7544C35.8569 25.8058 35.4806 26.6442 34.728 27.2695C33.9754 27.8949 32.9683 28.2075 31.7065 28.2075C30.5223 28.2075 29.5594 27.917 28.8179 27.3359C28.0763 26.7549 27.6696 25.9663 27.5977 24.9702H28.8511C28.8843 25.6121 29.1582 26.124 29.6729 26.5059C30.193 26.8877 30.8709 27.0786 31.7065 27.0786C32.603 27.0786 33.3141 26.8766 33.8398 26.4727C34.3711 26.0687 34.6367 25.5181 34.6367 24.8208C34.6367 23.714 33.9948 23.0112 32.7109 22.7124L30.6523 22.2061C29.7005 21.9792 28.9784 21.5946 28.4858 21.0522C27.9933 20.5099 27.7471 19.8237 27.7471 18.9937ZM37.2266 23.8994C37.2266 22.6045 37.589 21.5558 38.314 20.7534C39.0444 19.951 40.0073 19.5498 41.2026 19.5498C42.1489 19.5498 42.9486 19.8044 43.6016 20.3135C44.2546 20.8226 44.6613 21.5033 44.8218 22.3555H43.6514C43.502 21.8021 43.2031 21.3704 42.7549 21.0605C42.3122 20.7451 41.8003 20.5874 41.2192 20.5874C40.3781 20.5874 39.6947 20.8862 39.1689 21.4839C38.6432 22.0815 38.3804 22.8812 38.3804 23.8828C38.3804 24.8623 38.6322 25.6536 39.1357 26.2568C39.6393 26.8545 40.3062 27.1533 41.1362 27.1533C41.745 27.1533 42.279 26.9956 42.7383 26.6802C43.1976 26.3647 43.5075 25.9442 43.668 25.4185H44.855C44.6613 26.2596 44.2269 26.9347 43.5518 27.4438C42.8766 27.953 42.0715 28.2075 41.1362 28.2075C39.9686 28.2075 39.0251 27.8118 38.3057 27.0205C37.5863 26.2292 37.2266 25.1888 37.2266 23.8994ZM47.835 17.2505C47.6579 17.422 47.4504 17.5078 47.2124 17.5078C46.9744 17.5078 46.7697 17.4248 46.5981 17.2588C46.4321 17.0872 46.3491 16.8825 46.3491 16.6445C46.3491 16.4066 46.4349 16.1991 46.6064 16.022C46.778 15.8449 46.98 15.7563 47.2124 15.7563C47.4504 15.7563 47.6579 15.8449 47.835 16.022C48.012 16.1991 48.1006 16.4066 48.1006 16.6445C48.1006 16.877 48.012 17.0789 47.835 17.2505ZM46.6313 28V19.7739H47.8101V28H46.6313ZM53.7036 28.2075C52.4972 28.2075 51.5233 27.8118 50.7817 27.0205C50.0457 26.2236 49.6777 25.1777 49.6777 23.8828C49.6777 22.599 50.0402 21.5558 50.7651 20.7534C51.4956 19.951 52.4474 19.5498 53.6206 19.5498C54.7329 19.5498 55.6349 19.9095 56.3267 20.6289C57.0184 21.3483 57.3643 22.2918 57.3643 23.4595V24.0405H50.8149C50.8592 25.0477 51.1331 25.828 51.6367 26.3813C52.1403 26.9292 52.8348 27.2031 53.7202 27.2031C55.0815 27.2031 55.9199 26.647 56.2354 25.5347H57.3643C57.1429 26.4035 56.7196 27.0675 56.0942 27.5269C55.4689 27.9806 54.672 28.2075 53.7036 28.2075ZM53.6206 20.5542C52.8569 20.5542 52.2288 20.7894 51.7363 21.2598C51.2493 21.7301 50.9533 22.3721 50.8481 23.1855H56.1855C56.1855 22.3942 55.9504 21.7578 55.48 21.2764C55.0096 20.7949 54.3898 20.5542 53.6206 20.5542ZM60.4106 28H59.2319V19.7739H60.2529L60.4272 21.2017C60.6984 20.6815 61.0858 20.2775 61.5894 19.9897C62.0929 19.6965 62.6463 19.5498 63.2495 19.5498C64.3397 19.5498 65.1449 19.8514 65.665 20.4546C66.1852 21.0522 66.4453 21.8906 66.4453 22.9697V28H65.2666V23.2271C65.2666 22.3084 65.0757 21.6444 64.6938 21.2349C64.312 20.8254 63.7614 20.6206 63.042 20.6206C62.2119 20.6206 61.5645 20.9001 61.0996 21.459C60.6403 22.0124 60.4106 22.7594 60.4106 23.7002V28ZM68.2051 23.8994C68.2051 22.6045 68.5675 21.5558 69.2925 20.7534C70.0229 19.951 70.9858 19.5498 72.1812 19.5498C73.1274 19.5498 73.9271 19.8044 74.5801 20.3135C75.2331 20.8226 75.6398 21.5033 75.8003 22.3555H74.6299C74.4805 21.8021 74.1816 21.3704 73.7334 21.0605C73.2907 20.7451 72.7788 20.5874 72.1978 20.5874C71.3566 20.5874 70.6732 20.8862 70.1475 21.4839C69.6217 22.0815 69.3589 22.8812 69.3589 23.8828C69.3589 24.8623 69.6107 25.6536 70.1143 26.2568C70.6178 26.8545 71.2847 27.1533 72.1147 27.1533C72.7235 27.1533 73.2575 26.9956 73.7168 26.6802C74.1761 26.3647 74.486 25.9442 74.6465 25.4185H75.8335C75.6398 26.2596 75.2054 26.9347 74.5303 27.4438C73.8551 27.953 73.05 28.2075 72.1147 28.2075C70.9471 28.2075 70.0036 27.8118 69.2842 27.0205C68.5648 26.2292 68.2051 25.1888 68.2051 23.8994ZM81.063 28.2075C79.8566 28.2075 78.8826 27.8118 78.1411 27.0205C77.4051 26.2236 77.0371 25.1777 77.0371 23.8828C77.0371 22.599 77.3996 21.5558 78.1245 20.7534C78.855 19.951 79.8068 19.5498 80.98 19.5498C82.0923 19.5498 82.9943 19.9095 83.686 20.6289C84.3778 21.3483 84.7236 22.2918 84.7236 23.4595V24.0405H78.1743C78.2186 25.0477 78.4925 25.828 78.9961 26.3813C79.4997 26.9292 80.1942 27.2031 81.0796 27.2031C82.4409 27.2031 83.2793 26.647 83.5947 25.5347H84.7236C84.5023 26.4035 84.0789 27.0675 83.4536 27.5269C82.8283 27.9806 82.0314 28.2075 81.063 28.2075ZM80.98 20.5542C80.2163 20.5542 79.5882 20.7894 79.0957 21.2598C78.6087 21.7301 78.3127 22.3721 78.2075 23.1855H83.5449C83.5449 22.3942 83.3097 21.7578 82.8394 21.2764C82.369 20.7949 81.7492 20.5542 80.98 20.5542Z" fill="white"/>
</svg>
