<svg width="114" height="44" viewBox="0 0 114 44" fill="none" xmlns="http://www.w3.org/2000/svg">
<rect width="114" height="44" rx="22" fill="#2F78FF"/>
<path d="M33.7471 18.9937C33.7471 17.9754 34.1206 17.1564 34.8677 16.5366C35.6147 15.9168 36.6025 15.6069 37.8311 15.6069C38.9268 15.6069 39.8122 15.8975 40.4873 16.4785C41.168 17.054 41.5553 17.8509 41.6494 18.8691H40.4126C40.3462 18.1774 40.0861 17.6462 39.6323 17.2754C39.1841 16.8991 38.5781 16.7109 37.8145 16.7109C36.9567 16.7109 36.2677 16.9185 35.7476 17.3335C35.2329 17.743 34.9756 18.2909 34.9756 18.9771C34.9756 20.034 35.6092 20.723 36.8765 21.0439L38.9683 21.5586C40.894 22.0234 41.8569 23.0887 41.8569 24.7544C41.8569 25.8058 41.4806 26.6442 40.728 27.2695C39.9754 27.8949 38.9683 28.2075 37.7065 28.2075C36.5223 28.2075 35.5594 27.917 34.8179 27.3359C34.0763 26.7549 33.6696 25.9663 33.5977 24.9702H34.8511C34.8843 25.6121 35.1582 26.124 35.6729 26.5059C36.193 26.8877 36.8709 27.0786 37.7065 27.0786C38.603 27.0786 39.3141 26.8766 39.8398 26.4727C40.3711 26.0687 40.6367 25.5181 40.6367 24.8208C40.6367 23.714 39.9948 23.0112 38.7109 22.7124L36.6523 22.2061C35.7005 21.9792 34.9784 21.5946 34.4858 21.0522C33.9933 20.5099 33.7471 19.8237 33.7471 18.9937ZM43.7993 31.5859V19.7739H44.8203L44.9448 21.4341C45.2271 20.8088 45.6366 20.3384 46.1733 20.0229C46.7157 19.7075 47.341 19.5498 48.0493 19.5498C49.217 19.5498 50.1439 19.951 50.8301 20.7534C51.5163 21.5503 51.8594 22.5824 51.8594 23.8496C51.8594 25.1279 51.519 26.1738 50.8384 26.9873C50.1632 27.8008 49.2336 28.2075 48.0493 28.2075C47.341 28.2075 46.724 28.0581 46.1982 27.7593C45.6725 27.4549 45.2658 27.0094 44.978 26.4229V31.5859H43.7993ZM44.9946 23.8828C44.9946 24.8457 45.2492 25.6315 45.7583 26.2402C46.2729 26.849 46.9702 27.1533 47.8501 27.1533C48.7244 27.1533 49.4134 26.849 49.917 26.2402C50.4206 25.6315 50.6724 24.8457 50.6724 23.8828C50.6724 22.9144 50.4206 22.1286 49.917 21.5254C49.4134 20.9222 48.7244 20.6206 47.8501 20.6206C46.9647 20.6206 46.2674 20.9222 45.7583 21.5254C45.2492 22.1286 44.9946 22.9144 44.9946 23.8828ZM53.1543 23.8828C53.1543 22.6266 53.5472 21.5918 54.333 20.7783C55.1243 19.9593 56.126 19.5498 57.3379 19.5498C58.5443 19.5498 59.5404 19.9593 60.3262 20.7783C61.1175 21.5918 61.5132 22.6266 61.5132 23.8828C61.5132 25.1335 61.1175 26.1683 60.3262 26.9873C59.5404 27.8008 58.5443 28.2075 57.3379 28.2075C56.1315 28.2075 55.1326 27.8008 54.3413 26.9873C53.55 26.1683 53.1543 25.1335 53.1543 23.8828ZM54.3413 23.8662C54.3413 24.8346 54.618 25.626 55.1714 26.2402C55.7303 26.849 56.4525 27.1533 57.3379 27.1533C58.2122 27.1533 58.9289 26.849 59.4878 26.2402C60.0467 25.626 60.3262 24.8346 60.3262 23.8662C60.3262 22.9144 60.0467 22.1341 59.4878 21.5254C58.9289 20.9111 58.2122 20.604 57.3379 20.604C56.458 20.604 55.7386 20.9111 55.1797 21.5254C54.6208 22.1341 54.3413 22.9144 54.3413 23.8662ZM67.6973 19.666V20.7202H67.0498C66.2972 20.7202 65.694 20.9582 65.2402 21.4341C64.792 21.9045 64.5679 22.5298 64.5679 23.3101V28H63.3892V19.7739H64.5015L64.5845 21.0439C64.7505 20.5957 65.0382 20.2415 65.4478 19.9814C65.8628 19.7158 66.3553 19.583 66.9253 19.583C67.1965 19.583 67.4538 19.6107 67.6973 19.666ZM71.4907 28H70.3369V20.7617H68.6851V19.7739H70.3369V17.1675H71.4907V19.7739H73.1343V20.7617H71.4907V28ZM73.9644 25.6841H75.0933C75.0933 26.16 75.2593 26.5391 75.5913 26.8213C75.9289 27.098 76.3854 27.2363 76.9609 27.2363C77.5973 27.2363 78.0926 27.109 78.4468 26.8545C78.8065 26.5999 78.9863 26.2513 78.9863 25.8086C78.9863 25.46 78.8867 25.1833 78.6875 24.9785C78.4883 24.7738 78.1507 24.6133 77.6748 24.4971L76.2637 24.1401C74.847 23.786 74.1387 23.0444 74.1387 21.9155C74.1387 21.1961 74.4098 20.6234 74.9521 20.1973C75.5 19.7656 76.2194 19.5498 77.1104 19.5498C77.9792 19.5498 78.6764 19.7739 79.2021 20.2222C79.7279 20.6649 80.0018 21.2681 80.0239 22.0317H78.8784C78.8618 21.5558 78.6958 21.1851 78.3804 20.9194C78.0649 20.6538 77.6305 20.521 77.0771 20.521C76.5016 20.521 76.0562 20.64 75.7407 20.8779C75.4308 21.1159 75.2759 21.4562 75.2759 21.8989C75.2759 22.5353 75.7241 22.9642 76.6206 23.1855L78.0317 23.5425C78.7511 23.7196 79.2769 23.9852 79.6089 24.3394C79.9409 24.6935 80.1069 25.1667 80.1069 25.7588C80.1069 26.4948 79.8192 27.0869 79.2437 27.5352C78.6681 27.9834 77.9128 28.2075 76.9775 28.2075C76.0534 28.2075 75.3201 27.9779 74.7778 27.5186C74.2355 27.0592 73.9644 26.4478 73.9644 25.6841Z" fill="white"/>
</svg>
