<svg width="114" height="44" viewBox="0 0 114 44" fill="none" xmlns="http://www.w3.org/2000/svg">
<rect width="114" height="44" rx="22" fill="#2F78FF"/>
<path d="M14.2075 16.9517V15.8311H22.9233V16.9517H19.1714V28H17.9429V16.9517H14.2075ZM26.5425 28.2075C25.3361 28.2075 24.3621 27.8118 23.6206 27.0205C22.8846 26.2236 22.5166 25.1777 22.5166 23.8828C22.5166 22.599 22.8791 21.5558 23.604 20.7534C24.3345 19.951 25.2863 19.5498 26.4595 19.5498C27.5718 19.5498 28.4738 19.9095 29.1655 20.6289C29.8573 21.3483 30.2031 22.2918 30.2031 23.4595V24.0405H23.6538C23.6981 25.0477 23.972 25.828 24.4756 26.3813C24.9792 26.9292 25.6737 27.2031 26.5591 27.2031C27.9204 27.2031 28.7588 26.647 29.0742 25.5347H30.2031C29.9818 26.4035 29.5584 27.0675 28.9331 27.5269C28.3078 27.9806 27.5109 28.2075 26.5425 28.2075ZM26.4595 20.5542C25.6958 20.5542 25.0677 20.7894 24.5752 21.2598C24.0882 21.7301 23.7922 22.3721 23.687 23.1855H29.0244C29.0244 22.3942 28.7892 21.7578 28.3188 21.2764C27.8485 20.7949 27.2287 20.5542 26.4595 20.5542ZM31.498 23.8994C31.498 22.6045 31.8605 21.5558 32.5854 20.7534C33.3159 19.951 34.2788 19.5498 35.4741 19.5498C36.4204 19.5498 37.2201 19.8044 37.873 20.3135C38.526 20.8226 38.9328 21.5033 39.0933 22.3555H37.9229C37.7734 21.8021 37.4746 21.3704 37.0264 21.0605C36.5837 20.7451 36.0718 20.5874 35.4907 20.5874C34.6496 20.5874 33.9661 20.8862 33.4404 21.4839C32.9147 22.0815 32.6519 22.8812 32.6519 23.8828C32.6519 24.8623 32.9036 25.6536 33.4072 26.2568C33.9108 26.8545 34.5776 27.1533 35.4077 27.1533C36.0164 27.1533 36.5505 26.9956 37.0098 26.6802C37.4691 26.3647 37.779 25.9442 37.9395 25.4185H39.1265C38.9328 26.2596 38.4984 26.9347 37.8232 27.4438C37.1481 27.953 36.3429 28.2075 35.4077 28.2075C34.2401 28.2075 33.2965 27.8118 32.5771 27.0205C31.8577 26.2292 31.498 25.1888 31.498 23.8994ZM42.0815 27.9834H40.9028V15.6069H42.0815V21.2017C42.3527 20.6925 42.7373 20.2913 43.2354 19.998C43.7334 19.6992 44.3172 19.5498 44.9868 19.5498C46.0327 19.5498 46.8158 19.8514 47.3359 20.4546C47.8561 21.0578 48.1162 21.8962 48.1162 22.9697V28H46.9375V23.2271C46.9375 21.4894 46.2126 20.6206 44.7627 20.6206C43.916 20.6206 43.2575 20.8945 42.7871 21.4424C42.3167 21.9902 42.0815 22.6792 42.0815 23.5093V27.9834ZM51.6274 28H50.4487V19.7739H51.4697L51.644 21.2017C51.9152 20.6815 52.3026 20.2775 52.8062 19.9897C53.3097 19.6965 53.8631 19.5498 54.4663 19.5498C55.5565 19.5498 56.3617 19.8514 56.8818 20.4546C57.402 21.0522 57.6621 21.8906 57.6621 22.9697V28H56.4834V23.2271C56.4834 22.3084 56.2925 21.6444 55.9106 21.2349C55.5288 20.8254 54.9782 20.6206 54.2588 20.6206C53.4287 20.6206 52.7812 20.9001 52.3164 21.459C51.8571 22.0124 51.6274 22.7594 51.6274 23.7002V28ZM59.4219 23.8828C59.4219 22.6266 59.8148 21.5918 60.6006 20.7783C61.3919 19.9593 62.3936 19.5498 63.6055 19.5498C64.8118 19.5498 65.8079 19.9593 66.5938 20.7783C67.3851 21.5918 67.7808 22.6266 67.7808 23.8828C67.7808 25.1335 67.3851 26.1683 66.5938 26.9873C65.8079 27.8008 64.8118 28.2075 63.6055 28.2075C62.3991 28.2075 61.4002 27.8008 60.6089 26.9873C59.8175 26.1683 59.4219 25.1335 59.4219 23.8828ZM60.6089 23.8662C60.6089 24.8346 60.8856 25.626 61.439 26.2402C61.9979 26.849 62.7201 27.1533 63.6055 27.1533C64.4798 27.1533 65.1965 26.849 65.7554 26.2402C66.3143 25.626 66.5938 24.8346 66.5938 23.8662C66.5938 22.9144 66.3143 22.1341 65.7554 21.5254C65.1965 20.9111 64.4798 20.604 63.6055 20.604C62.7256 20.604 62.0062 20.9111 61.4473 21.5254C60.8883 22.1341 60.6089 22.9144 60.6089 23.8662ZM70.8853 28H69.7148V15.6069H70.8853V28ZM72.8027 23.8828C72.8027 22.6266 73.1956 21.5918 73.9814 20.7783C74.7728 19.9593 75.7744 19.5498 76.9863 19.5498C78.1927 19.5498 79.1888 19.9593 79.9746 20.7783C80.766 21.5918 81.1616 22.6266 81.1616 23.8828C81.1616 25.1335 80.766 26.1683 79.9746 26.9873C79.1888 27.8008 78.1927 28.2075 76.9863 28.2075C75.7799 28.2075 74.7811 27.8008 73.9897 26.9873C73.1984 26.1683 72.8027 25.1335 72.8027 23.8828ZM73.9897 23.8662C73.9897 24.8346 74.2664 25.626 74.8198 26.2402C75.3787 26.849 76.1009 27.1533 76.9863 27.1533C77.8607 27.1533 78.5773 26.849 79.1362 26.2402C79.6951 25.626 79.9746 24.8346 79.9746 23.8662C79.9746 22.9144 79.6951 22.1341 79.1362 21.5254C78.5773 20.9111 77.8607 20.604 76.9863 20.604C76.1064 20.604 75.387 20.9111 74.8281 21.5254C74.2692 22.1341 73.9897 22.9144 73.9897 23.8662ZM82.4814 23.6504C82.4814 22.8978 82.6309 22.2144 82.9297 21.6001C83.234 20.9803 83.6823 20.485 84.2744 20.1143C84.8721 19.738 85.561 19.5498 86.3413 19.5498C87.0552 19.5498 87.675 19.7103 88.2007 20.0312C88.7264 20.3522 89.1193 20.8143 89.3794 21.4175L89.5039 19.7739H90.5249V27.7427C90.5249 28.9657 90.1624 29.9451 89.4375 30.6812C88.7126 31.4227 87.7469 31.7935 86.5405 31.7935C85.4836 31.7935 84.6064 31.5112 83.9092 30.9468C83.2174 30.3879 82.7913 29.6104 82.6309 28.6143H83.8096C83.9368 29.2783 84.2412 29.7957 84.7227 30.1665C85.2096 30.5373 85.8211 30.7227 86.5571 30.7227C87.3983 30.7227 88.0762 30.4598 88.5908 29.9341C89.1055 29.4139 89.3628 28.7249 89.3628 27.8672V25.9082C89.0806 26.4893 88.6683 26.9403 88.126 27.2612C87.5837 27.5822 86.9611 27.7427 86.2583 27.7427C85.1183 27.7427 84.2025 27.3498 83.5107 26.564C82.8245 25.7782 82.4814 24.807 82.4814 23.6504ZM84.3989 21.459C83.9009 22.04 83.6519 22.765 83.6519 23.6338C83.6519 24.5026 83.9036 25.2303 84.4072 25.8169C84.9108 26.3979 85.5832 26.6885 86.4243 26.6885C87.2987 26.6885 87.9904 26.4062 88.4995 25.8418C89.0086 25.2718 89.2632 24.5358 89.2632 23.6338C89.2632 22.7318 89.0114 21.9985 88.5078 21.4341C88.0098 20.8696 87.3208 20.5874 86.4409 20.5874C85.5832 20.5874 84.9025 20.8779 84.3989 21.459ZM92.1353 31.5859V30.6147H93.04C93.2614 30.6147 93.4412 30.6037 93.5796 30.5815C93.7235 30.5649 93.884 30.5207 94.061 30.4487C94.2381 30.3823 94.3931 30.2661 94.5259 30.1001C94.6587 29.9396 94.7749 29.7266 94.8745 29.4609L95.2314 28.4897L91.8945 19.7739H93.1396L95.7876 26.9458L98.394 19.7739H99.5977L95.8291 29.8843C95.5967 30.5207 95.2785 30.9827 94.8745 31.2705C94.4761 31.5583 93.978 31.7021 93.3804 31.7021C92.8989 31.7021 92.4839 31.6634 92.1353 31.5859Z" fill="white"/>
</svg>
